<mxfile host="app.diagrams.net" modified="2024-02-25T14:03:04.845Z" agent="Mozilla/5.0 (Windows NT 10.0; Win64; x64) AppleWebKit/537.36 (KHTML, like Gecko) Chrome/121.0.0.0 Safari/537.36" etag="gCNYrNq04ASq7AZi1fjA" version="23.1.6" type="github">
  <diagram name="Page-1" id="jC0oegpY3QZngPecmYGD">
    <mxGraphModel dx="2545" dy="1653" grid="1" gridSize="10" guides="1" tooltips="1" connect="1" arrows="1" fold="1" page="1" pageScale="1" pageWidth="827" pageHeight="1169" math="0" shadow="0">
      <root>
        <mxCell id="0" />
        <mxCell id="1" parent="0" />
        <mxCell id="qqhGFcqV8pq6I3TWqDAr-300" style="edgeStyle=orthogonalEdgeStyle;rounded=0;orthogonalLoop=1;jettySize=auto;html=1;exitX=0.5;exitY=1;exitDx=0;exitDy=0;exitPerimeter=0;entryX=0.5;entryY=0;entryDx=0;entryDy=0;" edge="1" parent="1" source="qqhGFcqV8pq6I3TWqDAr-266" target="qqhGFcqV8pq6I3TWqDAr-267">
          <mxGeometry relative="1" as="geometry" />
        </mxCell>
        <mxCell id="qqhGFcqV8pq6I3TWqDAr-266" value="BEGIN main" style="strokeWidth=2;html=1;shape=mxgraph.flowchart.terminator;whiteSpace=wrap;rounded=0;" vertex="1" parent="1">
          <mxGeometry x="612" y="76" width="140" height="60" as="geometry" />
        </mxCell>
        <mxCell id="qqhGFcqV8pq6I3TWqDAr-307" style="edgeStyle=orthogonalEdgeStyle;rounded=0;orthogonalLoop=1;jettySize=auto;html=1;exitX=0.5;exitY=1;exitDx=0;exitDy=0;entryX=0.5;entryY=0;entryDx=0;entryDy=0;" edge="1" parent="1" source="qqhGFcqV8pq6I3TWqDAr-267" target="qqhGFcqV8pq6I3TWqDAr-304">
          <mxGeometry relative="1" as="geometry" />
        </mxCell>
        <mxCell id="qqhGFcqV8pq6I3TWqDAr-267" value="INPUT duration,&lt;br&gt;membership type,&lt;br&gt;day" style="shape=parallelogram;perimeter=parallelogramPerimeter;whiteSpace=wrap;html=1;fixedSize=1;rounded=0;" vertex="1" parent="1">
          <mxGeometry x="587" y="186" width="190" height="60" as="geometry" />
        </mxCell>
        <mxCell id="qqhGFcqV8pq6I3TWqDAr-268" value="BEGIN&amp;nbsp; checkweek(day)" style="strokeWidth=2;html=1;shape=mxgraph.flowchart.terminator;whiteSpace=wrap;rounded=0;" vertex="1" parent="1">
          <mxGeometry x="205" y="60" width="140" height="60" as="geometry" />
        </mxCell>
        <mxCell id="qqhGFcqV8pq6I3TWqDAr-279" style="edgeStyle=orthogonalEdgeStyle;rounded=0;orthogonalLoop=1;jettySize=auto;html=1;exitX=0;exitY=0.5;exitDx=0;exitDy=0;exitPerimeter=0;" edge="1" parent="1" source="qqhGFcqV8pq6I3TWqDAr-271" target="qqhGFcqV8pq6I3TWqDAr-272">
          <mxGeometry relative="1" as="geometry" />
        </mxCell>
        <mxCell id="qqhGFcqV8pq6I3TWqDAr-280" style="edgeStyle=orthogonalEdgeStyle;rounded=0;orthogonalLoop=1;jettySize=auto;html=1;exitX=0.5;exitY=1;exitDx=0;exitDy=0;exitPerimeter=0;entryX=0.5;entryY=0;entryDx=0;entryDy=0;" edge="1" parent="1" source="qqhGFcqV8pq6I3TWqDAr-271" target="qqhGFcqV8pq6I3TWqDAr-275">
          <mxGeometry relative="1" as="geometry" />
        </mxCell>
        <mxCell id="qqhGFcqV8pq6I3TWqDAr-282" style="edgeStyle=orthogonalEdgeStyle;rounded=0;orthogonalLoop=1;jettySize=auto;html=1;exitX=1;exitY=0.5;exitDx=0;exitDy=0;exitPerimeter=0;entryX=0.5;entryY=0;entryDx=0;entryDy=0;" edge="1" parent="1" source="qqhGFcqV8pq6I3TWqDAr-271" target="qqhGFcqV8pq6I3TWqDAr-274">
          <mxGeometry relative="1" as="geometry" />
        </mxCell>
        <mxCell id="qqhGFcqV8pq6I3TWqDAr-271" value="IF day is" style="strokeWidth=2;html=1;shape=mxgraph.flowchart.decision;whiteSpace=wrap;rounded=0;" vertex="1" parent="1">
          <mxGeometry x="210" y="140" width="130" height="120" as="geometry" />
        </mxCell>
        <mxCell id="qqhGFcqV8pq6I3TWqDAr-272" value="return weekday" style="rounded=0;whiteSpace=wrap;html=1;" vertex="1" parent="1">
          <mxGeometry x="50" y="310" width="120" height="60" as="geometry" />
        </mxCell>
        <mxCell id="qqhGFcqV8pq6I3TWqDAr-274" value="return idk" style="rounded=0;whiteSpace=wrap;html=1;" vertex="1" parent="1">
          <mxGeometry x="370" y="310" width="120" height="60" as="geometry" />
        </mxCell>
        <mxCell id="qqhGFcqV8pq6I3TWqDAr-285" value="" style="edgeStyle=orthogonalEdgeStyle;rounded=0;orthogonalLoop=1;jettySize=auto;html=1;" edge="1" parent="1" source="qqhGFcqV8pq6I3TWqDAr-275" target="qqhGFcqV8pq6I3TWqDAr-284">
          <mxGeometry relative="1" as="geometry" />
        </mxCell>
        <mxCell id="qqhGFcqV8pq6I3TWqDAr-275" value="return weekend" style="rounded=0;whiteSpace=wrap;html=1;" vertex="1" parent="1">
          <mxGeometry x="215" y="310" width="120" height="60" as="geometry" />
        </mxCell>
        <mxCell id="qqhGFcqV8pq6I3TWqDAr-276" value="in mon, tue, wed, thurs, fri" style="text;html=1;align=center;verticalAlign=middle;whiteSpace=wrap;rounded=0;" vertex="1" parent="1">
          <mxGeometry x="130" y="160" width="60" height="30" as="geometry" />
        </mxCell>
        <mxCell id="qqhGFcqV8pq6I3TWqDAr-277" value="in sat, sun" style="text;html=1;align=center;verticalAlign=middle;whiteSpace=wrap;rounded=0;" vertex="1" parent="1">
          <mxGeometry x="210" y="270" width="60" height="30" as="geometry" />
        </mxCell>
        <mxCell id="qqhGFcqV8pq6I3TWqDAr-281" value="not in mon, tue, wed, thurs, fri, sat, sun" style="text;html=1;align=center;verticalAlign=middle;whiteSpace=wrap;rounded=0;" vertex="1" parent="1">
          <mxGeometry x="350" y="160" width="90" height="30" as="geometry" />
        </mxCell>
        <mxCell id="qqhGFcqV8pq6I3TWqDAr-283" style="edgeStyle=orthogonalEdgeStyle;rounded=0;orthogonalLoop=1;jettySize=auto;html=1;exitX=0.5;exitY=1;exitDx=0;exitDy=0;exitPerimeter=0;entryX=0.5;entryY=0;entryDx=0;entryDy=0;entryPerimeter=0;" edge="1" parent="1" source="qqhGFcqV8pq6I3TWqDAr-268" target="qqhGFcqV8pq6I3TWqDAr-271">
          <mxGeometry relative="1" as="geometry" />
        </mxCell>
        <mxCell id="qqhGFcqV8pq6I3TWqDAr-284" value="END checkweek" style="strokeWidth=2;html=1;shape=mxgraph.flowchart.terminator;whiteSpace=wrap;rounded=0;" vertex="1" parent="1">
          <mxGeometry x="204" y="445" width="140" height="60" as="geometry" />
        </mxCell>
        <mxCell id="qqhGFcqV8pq6I3TWqDAr-286" style="edgeStyle=orthogonalEdgeStyle;rounded=0;orthogonalLoop=1;jettySize=auto;html=1;exitX=0.5;exitY=1;exitDx=0;exitDy=0;entryX=1;entryY=0.5;entryDx=0;entryDy=0;entryPerimeter=0;" edge="1" parent="1" source="qqhGFcqV8pq6I3TWqDAr-274" target="qqhGFcqV8pq6I3TWqDAr-284">
          <mxGeometry relative="1" as="geometry" />
        </mxCell>
        <mxCell id="qqhGFcqV8pq6I3TWqDAr-287" style="edgeStyle=orthogonalEdgeStyle;rounded=0;orthogonalLoop=1;jettySize=auto;html=1;exitX=0.5;exitY=1;exitDx=0;exitDy=0;entryX=0;entryY=0.5;entryDx=0;entryDy=0;entryPerimeter=0;" edge="1" parent="1" source="qqhGFcqV8pq6I3TWqDAr-272" target="qqhGFcqV8pq6I3TWqDAr-284">
          <mxGeometry relative="1" as="geometry" />
        </mxCell>
        <mxCell id="qqhGFcqV8pq6I3TWqDAr-289" value="IF membership type =&amp;nbsp;" style="strokeWidth=2;html=1;shape=mxgraph.flowchart.decision;whiteSpace=wrap;rounded=0;" vertex="1" parent="1">
          <mxGeometry x="614" y="516" width="130" height="120" as="geometry" />
        </mxCell>
        <mxCell id="qqhGFcqV8pq6I3TWqDAr-325" style="edgeStyle=orthogonalEdgeStyle;rounded=0;orthogonalLoop=1;jettySize=auto;html=1;exitX=0.5;exitY=1;exitDx=0;exitDy=0;exitPerimeter=0;entryX=0.5;entryY=0;entryDx=0;entryDy=0;" edge="1" parent="1" source="qqhGFcqV8pq6I3TWqDAr-290" target="qqhGFcqV8pq6I3TWqDAr-310">
          <mxGeometry relative="1" as="geometry" />
        </mxCell>
        <mxCell id="qqhGFcqV8pq6I3TWqDAr-326" style="edgeStyle=orthogonalEdgeStyle;rounded=0;orthogonalLoop=1;jettySize=auto;html=1;exitX=0;exitY=0.5;exitDx=0;exitDy=0;exitPerimeter=0;entryX=0.5;entryY=0;entryDx=0;entryDy=0;" edge="1" parent="1" source="qqhGFcqV8pq6I3TWqDAr-290" target="qqhGFcqV8pq6I3TWqDAr-309">
          <mxGeometry relative="1" as="geometry" />
        </mxCell>
        <mxCell id="qqhGFcqV8pq6I3TWqDAr-290" value="IF checkweek =&amp;nbsp;" style="strokeWidth=2;html=1;shape=mxgraph.flowchart.decision;whiteSpace=wrap;rounded=0;" vertex="1" parent="1">
          <mxGeometry x="309" y="696" width="130" height="120" as="geometry" />
        </mxCell>
        <mxCell id="qqhGFcqV8pq6I3TWqDAr-327" style="edgeStyle=orthogonalEdgeStyle;rounded=0;orthogonalLoop=1;jettySize=auto;html=1;exitX=0;exitY=0.5;exitDx=0;exitDy=0;exitPerimeter=0;entryX=0.5;entryY=0;entryDx=0;entryDy=0;" edge="1" parent="1" source="qqhGFcqV8pq6I3TWqDAr-291" target="qqhGFcqV8pq6I3TWqDAr-321">
          <mxGeometry relative="1" as="geometry" />
        </mxCell>
        <mxCell id="qqhGFcqV8pq6I3TWqDAr-291" value="IF checkweek =&amp;nbsp;" style="strokeWidth=2;html=1;shape=mxgraph.flowchart.decision;whiteSpace=wrap;rounded=0;" vertex="1" parent="1">
          <mxGeometry x="614" y="686" width="130" height="120" as="geometry" />
        </mxCell>
        <mxCell id="qqhGFcqV8pq6I3TWqDAr-329" style="edgeStyle=orthogonalEdgeStyle;rounded=0;orthogonalLoop=1;jettySize=auto;html=1;exitX=0.5;exitY=1;exitDx=0;exitDy=0;exitPerimeter=0;entryX=0.5;entryY=0;entryDx=0;entryDy=0;" edge="1" parent="1" source="qqhGFcqV8pq6I3TWqDAr-292" target="qqhGFcqV8pq6I3TWqDAr-323">
          <mxGeometry relative="1" as="geometry" />
        </mxCell>
        <mxCell id="qqhGFcqV8pq6I3TWqDAr-330" style="edgeStyle=orthogonalEdgeStyle;rounded=0;orthogonalLoop=1;jettySize=auto;html=1;exitX=1;exitY=0.5;exitDx=0;exitDy=0;exitPerimeter=0;entryX=0.5;entryY=0;entryDx=0;entryDy=0;" edge="1" parent="1" source="qqhGFcqV8pq6I3TWqDAr-292" target="qqhGFcqV8pq6I3TWqDAr-324">
          <mxGeometry relative="1" as="geometry" />
        </mxCell>
        <mxCell id="qqhGFcqV8pq6I3TWqDAr-292" value="if checkweek =&amp;nbsp;" style="strokeWidth=2;html=1;shape=mxgraph.flowchart.decision;whiteSpace=wrap;rounded=0;" vertex="1" parent="1">
          <mxGeometry x="912" y="676" width="130" height="120" as="geometry" />
        </mxCell>
        <mxCell id="qqhGFcqV8pq6I3TWqDAr-293" style="edgeStyle=orthogonalEdgeStyle;rounded=0;orthogonalLoop=1;jettySize=auto;html=1;exitX=0.5;exitY=1;exitDx=0;exitDy=0;exitPerimeter=0;entryX=0.5;entryY=0;entryDx=0;entryDy=0;entryPerimeter=0;" edge="1" parent="1" source="qqhGFcqV8pq6I3TWqDAr-289" target="qqhGFcqV8pq6I3TWqDAr-291">
          <mxGeometry relative="1" as="geometry" />
        </mxCell>
        <mxCell id="qqhGFcqV8pq6I3TWqDAr-294" style="edgeStyle=orthogonalEdgeStyle;rounded=0;orthogonalLoop=1;jettySize=auto;html=1;exitX=0;exitY=0.5;exitDx=0;exitDy=0;exitPerimeter=0;entryX=0.5;entryY=0;entryDx=0;entryDy=0;entryPerimeter=0;" edge="1" parent="1" source="qqhGFcqV8pq6I3TWqDAr-289" target="qqhGFcqV8pq6I3TWqDAr-290">
          <mxGeometry relative="1" as="geometry" />
        </mxCell>
        <mxCell id="qqhGFcqV8pq6I3TWqDAr-295" value="platinum" style="text;html=1;align=center;verticalAlign=middle;whiteSpace=wrap;rounded=0;" vertex="1" parent="1">
          <mxGeometry x="460" y="536" width="60" height="30" as="geometry" />
        </mxCell>
        <mxCell id="qqhGFcqV8pq6I3TWqDAr-297" value="not platinum or gold" style="text;html=1;align=center;verticalAlign=middle;whiteSpace=wrap;rounded=0;" vertex="1" parent="1">
          <mxGeometry x="839" y="546" width="100" height="30" as="geometry" />
        </mxCell>
        <mxCell id="qqhGFcqV8pq6I3TWqDAr-298" style="edgeStyle=orthogonalEdgeStyle;rounded=0;orthogonalLoop=1;jettySize=auto;html=1;exitX=1;exitY=0.5;exitDx=0;exitDy=0;exitPerimeter=0;" edge="1" parent="1" source="qqhGFcqV8pq6I3TWqDAr-289" target="qqhGFcqV8pq6I3TWqDAr-292">
          <mxGeometry relative="1" as="geometry" />
        </mxCell>
        <mxCell id="qqhGFcqV8pq6I3TWqDAr-299" value="gold" style="text;html=1;align=center;verticalAlign=middle;whiteSpace=wrap;rounded=0;" vertex="1" parent="1">
          <mxGeometry x="689" y="646" width="60" height="30" as="geometry" />
        </mxCell>
        <mxCell id="qqhGFcqV8pq6I3TWqDAr-303" value="w" style="group" vertex="1" connectable="0" parent="1">
          <mxGeometry x="609" y="276" width="140" height="60" as="geometry" />
        </mxCell>
        <mxCell id="qqhGFcqV8pq6I3TWqDAr-304" value="" style="verticalLabelPosition=bottom;verticalAlign=middle;shape=process;whiteSpace=wrap;rounded=0;size=0.14;arcSize=6;html=1;spacing=2;horizontal=0;" vertex="1" parent="qqhGFcqV8pq6I3TWqDAr-303">
          <mxGeometry width="140" height="60" as="geometry" />
        </mxCell>
        <mxCell id="qqhGFcqV8pq6I3TWqDAr-305" value="&lt;u&gt;checkweek(day)&lt;/u&gt;" style="text;html=1;strokeColor=none;fillColor=none;align=center;verticalAlign=middle;whiteSpace=wrap;rounded=0;" vertex="1" parent="qqhGFcqV8pq6I3TWqDAr-303">
          <mxGeometry x="20" y="20" width="100" height="20" as="geometry" />
        </mxCell>
        <mxCell id="qqhGFcqV8pq6I3TWqDAr-309" value="DISPLAY &quot;First hour free&lt;br&gt;and after that $2/ hour&quot;" style="shape=parallelogram;perimeter=parallelogramPerimeter;whiteSpace=wrap;html=1;fixedSize=1;rounded=0;" vertex="1" parent="1">
          <mxGeometry x="92" y="857" width="180" height="90" as="geometry" />
        </mxCell>
        <mxCell id="qqhGFcqV8pq6I3TWqDAr-343" style="edgeStyle=orthogonalEdgeStyle;rounded=0;orthogonalLoop=1;jettySize=auto;html=1;exitX=0.5;exitY=1;exitDx=0;exitDy=0;" edge="1" parent="1" source="qqhGFcqV8pq6I3TWqDAr-310" target="qqhGFcqV8pq6I3TWqDAr-332">
          <mxGeometry relative="1" as="geometry" />
        </mxCell>
        <mxCell id="qqhGFcqV8pq6I3TWqDAr-310" value="DISPLAY &quot;First 2 hours free&lt;br&gt;and after that $1/ hour&quot;" style="shape=parallelogram;perimeter=parallelogramPerimeter;whiteSpace=wrap;html=1;fixedSize=1;rounded=0;" vertex="1" parent="1">
          <mxGeometry x="284" y="857" width="180" height="90" as="geometry" />
        </mxCell>
        <mxCell id="qqhGFcqV8pq6I3TWqDAr-317" style="edgeStyle=orthogonalEdgeStyle;rounded=0;orthogonalLoop=1;jettySize=auto;html=1;exitX=1;exitY=0.5;exitDx=0;exitDy=0;exitPerimeter=0;entryX=0.5;entryY=0;entryDx=0;entryDy=0;" edge="1" parent="1" source="qqhGFcqV8pq6I3TWqDAr-312" target="qqhGFcqV8pq6I3TWqDAr-319">
          <mxGeometry relative="1" as="geometry">
            <mxPoint x="1212" y="705.9999999999998" as="targetPoint" />
          </mxGeometry>
        </mxCell>
        <mxCell id="qqhGFcqV8pq6I3TWqDAr-312" value="If checkweek = idk" style="strokeWidth=2;html=1;shape=mxgraph.flowchart.decision;whiteSpace=wrap;rounded=0;" vertex="1" parent="1">
          <mxGeometry x="614" y="366" width="130" height="120" as="geometry" />
        </mxCell>
        <mxCell id="qqhGFcqV8pq6I3TWqDAr-313" style="edgeStyle=orthogonalEdgeStyle;rounded=0;orthogonalLoop=1;jettySize=auto;html=1;exitX=0.5;exitY=1;exitDx=0;exitDy=0;exitPerimeter=0;entryX=0.5;entryY=0;entryDx=0;entryDy=0;entryPerimeter=0;" edge="1" parent="1" source="qqhGFcqV8pq6I3TWqDAr-312" target="qqhGFcqV8pq6I3TWqDAr-289">
          <mxGeometry relative="1" as="geometry" />
        </mxCell>
        <mxCell id="qqhGFcqV8pq6I3TWqDAr-314" value="False" style="text;html=1;align=center;verticalAlign=middle;whiteSpace=wrap;rounded=0;" vertex="1" parent="1">
          <mxGeometry x="681" y="485" width="60" height="30" as="geometry" />
        </mxCell>
        <mxCell id="qqhGFcqV8pq6I3TWqDAr-315" style="edgeStyle=orthogonalEdgeStyle;rounded=0;orthogonalLoop=1;jettySize=auto;html=1;exitX=0.5;exitY=1;exitDx=0;exitDy=0;entryX=0.5;entryY=0;entryDx=0;entryDy=0;entryPerimeter=0;" edge="1" parent="1" source="qqhGFcqV8pq6I3TWqDAr-304" target="qqhGFcqV8pq6I3TWqDAr-312">
          <mxGeometry relative="1" as="geometry" />
        </mxCell>
        <mxCell id="qqhGFcqV8pq6I3TWqDAr-316" value="END main" style="strokeWidth=2;html=1;shape=mxgraph.flowchart.terminator;whiteSpace=wrap;rounded=0;" vertex="1" parent="1">
          <mxGeometry x="604" y="1326" width="140" height="60" as="geometry" />
        </mxCell>
        <mxCell id="qqhGFcqV8pq6I3TWqDAr-319" value="DISPLAY day &quot;is&lt;br&gt;not a valid day&quot;" style="shape=parallelogram;perimeter=parallelogramPerimeter;whiteSpace=wrap;html=1;fixedSize=1;rounded=0;" vertex="1" parent="1">
          <mxGeometry x="1332" y="696" width="140" height="60" as="geometry" />
        </mxCell>
        <mxCell id="qqhGFcqV8pq6I3TWqDAr-320" style="edgeStyle=orthogonalEdgeStyle;rounded=0;orthogonalLoop=1;jettySize=auto;html=1;exitX=0.5;exitY=1;exitDx=0;exitDy=0;entryX=1;entryY=0.5;entryDx=0;entryDy=0;entryPerimeter=0;" edge="1" parent="1" source="qqhGFcqV8pq6I3TWqDAr-319" target="qqhGFcqV8pq6I3TWqDAr-316">
          <mxGeometry relative="1" as="geometry" />
        </mxCell>
        <mxCell id="qqhGFcqV8pq6I3TWqDAr-345" value="" style="edgeStyle=orthogonalEdgeStyle;rounded=0;orthogonalLoop=1;jettySize=auto;html=1;" edge="1" parent="1" source="qqhGFcqV8pq6I3TWqDAr-321" target="qqhGFcqV8pq6I3TWqDAr-333">
          <mxGeometry relative="1" as="geometry" />
        </mxCell>
        <mxCell id="qqhGFcqV8pq6I3TWqDAr-321" value="DISPLAY &quot;First hour free&lt;br&gt;and after that $2.5/ hour&quot;" style="shape=parallelogram;perimeter=parallelogramPerimeter;whiteSpace=wrap;html=1;fixedSize=1;rounded=0;" vertex="1" parent="1">
          <mxGeometry x="492" y="857" width="180" height="90" as="geometry" />
        </mxCell>
        <mxCell id="qqhGFcqV8pq6I3TWqDAr-346" value="" style="edgeStyle=orthogonalEdgeStyle;rounded=0;orthogonalLoop=1;jettySize=auto;html=1;" edge="1" parent="1" source="qqhGFcqV8pq6I3TWqDAr-322" target="qqhGFcqV8pq6I3TWqDAr-334">
          <mxGeometry relative="1" as="geometry" />
        </mxCell>
        <mxCell id="qqhGFcqV8pq6I3TWqDAr-322" value="DISPLAY &quot;First 2hours free&lt;br&gt;and after that $2.5/ hour&quot;" style="shape=parallelogram;perimeter=parallelogramPerimeter;whiteSpace=wrap;html=1;fixedSize=1;rounded=0;" vertex="1" parent="1">
          <mxGeometry x="692" y="857" width="180" height="90" as="geometry" />
        </mxCell>
        <mxCell id="qqhGFcqV8pq6I3TWqDAr-347" value="" style="edgeStyle=orthogonalEdgeStyle;rounded=0;orthogonalLoop=1;jettySize=auto;html=1;" edge="1" parent="1" source="qqhGFcqV8pq6I3TWqDAr-323" target="qqhGFcqV8pq6I3TWqDAr-335">
          <mxGeometry relative="1" as="geometry" />
        </mxCell>
        <mxCell id="qqhGFcqV8pq6I3TWqDAr-323" value="DISPLAY &quot;First hour free&lt;br&gt;and after that $3/ hour&quot;" style="shape=parallelogram;perimeter=parallelogramPerimeter;whiteSpace=wrap;html=1;fixedSize=1;rounded=0;" vertex="1" parent="1">
          <mxGeometry x="887" y="857" width="180" height="90" as="geometry" />
        </mxCell>
        <mxCell id="qqhGFcqV8pq6I3TWqDAr-348" value="" style="edgeStyle=orthogonalEdgeStyle;rounded=0;orthogonalLoop=1;jettySize=auto;html=1;" edge="1" parent="1" source="qqhGFcqV8pq6I3TWqDAr-324" target="qqhGFcqV8pq6I3TWqDAr-336">
          <mxGeometry relative="1" as="geometry" />
        </mxCell>
        <mxCell id="qqhGFcqV8pq6I3TWqDAr-324" value="DISPLAY &quot;First two hours&lt;br&gt;free and after that $3/ hour&quot;" style="shape=parallelogram;perimeter=parallelogramPerimeter;whiteSpace=wrap;html=1;fixedSize=1;rounded=0;" vertex="1" parent="1">
          <mxGeometry x="1082" y="857" width="180" height="90" as="geometry" />
        </mxCell>
        <mxCell id="qqhGFcqV8pq6I3TWqDAr-328" style="edgeStyle=orthogonalEdgeStyle;rounded=0;orthogonalLoop=1;jettySize=auto;html=1;exitX=1;exitY=0.5;exitDx=0;exitDy=0;exitPerimeter=0;entryX=0.561;entryY=0.039;entryDx=0;entryDy=0;entryPerimeter=0;" edge="1" parent="1" source="qqhGFcqV8pq6I3TWqDAr-291" target="qqhGFcqV8pq6I3TWqDAr-322">
          <mxGeometry relative="1" as="geometry" />
        </mxCell>
        <mxCell id="qqhGFcqV8pq6I3TWqDAr-363" style="edgeStyle=orthogonalEdgeStyle;rounded=0;orthogonalLoop=1;jettySize=auto;html=1;exitX=0.5;exitY=1;exitDx=0;exitDy=0;" edge="1" parent="1" source="qqhGFcqV8pq6I3TWqDAr-331" target="qqhGFcqV8pq6I3TWqDAr-316">
          <mxGeometry relative="1" as="geometry" />
        </mxCell>
        <mxCell id="qqhGFcqV8pq6I3TWqDAr-331" value="DISPLAY&amp;nbsp;&#39;Parking Fees = $&#39; + str((duration-1)*2)" style="shape=parallelogram;perimeter=parallelogramPerimeter;whiteSpace=wrap;html=1;fixedSize=1;rounded=0;" vertex="1" parent="1">
          <mxGeometry x="72" y="1011" width="180" height="90" as="geometry" />
        </mxCell>
        <mxCell id="qqhGFcqV8pq6I3TWqDAr-362" style="edgeStyle=orthogonalEdgeStyle;rounded=0;orthogonalLoop=1;jettySize=auto;html=1;exitX=0.5;exitY=1;exitDx=0;exitDy=0;" edge="1" parent="1" source="qqhGFcqV8pq6I3TWqDAr-332">
          <mxGeometry relative="1" as="geometry">
            <mxPoint x="672" y="1326" as="targetPoint" />
          </mxGeometry>
        </mxCell>
        <mxCell id="qqhGFcqV8pq6I3TWqDAr-332" value="DISPLAY&amp;nbsp;&#39;Parking Fees = $&#39; + str((duration-2)*1)" style="shape=parallelogram;perimeter=parallelogramPerimeter;whiteSpace=wrap;html=1;fixedSize=1;rounded=0;" vertex="1" parent="1">
          <mxGeometry x="284" y="1011" width="180" height="90" as="geometry" />
        </mxCell>
        <mxCell id="qqhGFcqV8pq6I3TWqDAr-361" style="edgeStyle=orthogonalEdgeStyle;rounded=0;orthogonalLoop=1;jettySize=auto;html=1;exitX=0.5;exitY=1;exitDx=0;exitDy=0;" edge="1" parent="1" source="qqhGFcqV8pq6I3TWqDAr-333">
          <mxGeometry relative="1" as="geometry">
            <mxPoint x="672" y="1326" as="targetPoint" />
          </mxGeometry>
        </mxCell>
        <mxCell id="qqhGFcqV8pq6I3TWqDAr-333" value="DISPLAY&amp;nbsp;&#39;Parking Fees = $&#39; + str((float(duration)-1)*2.5)" style="shape=parallelogram;perimeter=parallelogramPerimeter;whiteSpace=wrap;html=1;fixedSize=1;rounded=0;" vertex="1" parent="1">
          <mxGeometry x="492" y="1011" width="180" height="90" as="geometry" />
        </mxCell>
        <mxCell id="qqhGFcqV8pq6I3TWqDAr-360" style="edgeStyle=orthogonalEdgeStyle;rounded=0;orthogonalLoop=1;jettySize=auto;html=1;exitX=0.5;exitY=1;exitDx=0;exitDy=0;" edge="1" parent="1" source="qqhGFcqV8pq6I3TWqDAr-334">
          <mxGeometry relative="1" as="geometry">
            <mxPoint x="672" y="1326" as="targetPoint" />
          </mxGeometry>
        </mxCell>
        <mxCell id="qqhGFcqV8pq6I3TWqDAr-334" value="DISPLAY&amp;nbsp;&#39;Parking Fees = $&#39; + str((float(duration)-2)*2.5)" style="shape=parallelogram;perimeter=parallelogramPerimeter;whiteSpace=wrap;html=1;fixedSize=1;rounded=0;" vertex="1" parent="1">
          <mxGeometry x="692" y="1011" width="180" height="90" as="geometry" />
        </mxCell>
        <mxCell id="qqhGFcqV8pq6I3TWqDAr-359" style="edgeStyle=orthogonalEdgeStyle;rounded=0;orthogonalLoop=1;jettySize=auto;html=1;exitX=0.5;exitY=1;exitDx=0;exitDy=0;" edge="1" parent="1" source="qqhGFcqV8pq6I3TWqDAr-335">
          <mxGeometry relative="1" as="geometry">
            <mxPoint x="672" y="1326" as="targetPoint" />
          </mxGeometry>
        </mxCell>
        <mxCell id="qqhGFcqV8pq6I3TWqDAr-335" value="DISPLAY&amp;nbsp;&#39;Parking Fees = $&#39; + str((duration-1)*3)" style="shape=parallelogram;perimeter=parallelogramPerimeter;whiteSpace=wrap;html=1;fixedSize=1;rounded=0;" vertex="1" parent="1">
          <mxGeometry x="888" y="1011" width="180" height="90" as="geometry" />
        </mxCell>
        <mxCell id="qqhGFcqV8pq6I3TWqDAr-336" value="DISPLAY&amp;nbsp;&#39;Parking Fees = $&#39; + str((duration-2)*3)" style="shape=parallelogram;perimeter=parallelogramPerimeter;whiteSpace=wrap;html=1;fixedSize=1;rounded=0;" vertex="1" parent="1">
          <mxGeometry x="1083" y="1011" width="180" height="90" as="geometry" />
        </mxCell>
        <mxCell id="qqhGFcqV8pq6I3TWqDAr-337" style="edgeStyle=orthogonalEdgeStyle;rounded=0;orthogonalLoop=1;jettySize=auto;html=1;exitX=0.5;exitY=1;exitDx=0;exitDy=0;entryX=0.615;entryY=-0.004;entryDx=0;entryDy=0;entryPerimeter=0;" edge="1" parent="1" source="qqhGFcqV8pq6I3TWqDAr-309" target="qqhGFcqV8pq6I3TWqDAr-331">
          <mxGeometry relative="1" as="geometry" />
        </mxCell>
        <mxCell id="qqhGFcqV8pq6I3TWqDAr-349" value="Weekday" style="text;html=1;align=center;verticalAlign=middle;whiteSpace=wrap;rounded=0;" vertex="1" parent="1">
          <mxGeometry x="213" y="719" width="60" height="30" as="geometry" />
        </mxCell>
        <mxCell id="qqhGFcqV8pq6I3TWqDAr-351" value="Weekday" style="text;html=1;align=center;verticalAlign=middle;whiteSpace=wrap;rounded=0;" vertex="1" parent="1">
          <mxGeometry x="520" y="786" width="60" height="30" as="geometry" />
        </mxCell>
        <mxCell id="qqhGFcqV8pq6I3TWqDAr-352" value="Weekday" style="text;html=1;align=center;verticalAlign=middle;whiteSpace=wrap;rounded=0;" vertex="1" parent="1">
          <mxGeometry x="912" y="796" width="60" height="30" as="geometry" />
        </mxCell>
        <mxCell id="qqhGFcqV8pq6I3TWqDAr-354" value="Weekend" style="text;html=1;align=center;verticalAlign=middle;whiteSpace=wrap;rounded=0;" vertex="1" parent="1">
          <mxGeometry x="379" y="816" width="60" height="30" as="geometry" />
        </mxCell>
        <mxCell id="qqhGFcqV8pq6I3TWqDAr-355" value="Weekend" style="text;html=1;align=center;verticalAlign=middle;whiteSpace=wrap;rounded=0;" vertex="1" parent="1">
          <mxGeometry x="802" y="796" width="60" height="30" as="geometry" />
        </mxCell>
        <mxCell id="qqhGFcqV8pq6I3TWqDAr-356" value="Weekend" style="text;html=1;align=center;verticalAlign=middle;whiteSpace=wrap;rounded=0;" vertex="1" parent="1">
          <mxGeometry x="1182" y="786" width="60" height="30" as="geometry" />
        </mxCell>
        <mxCell id="qqhGFcqV8pq6I3TWqDAr-358" style="edgeStyle=orthogonalEdgeStyle;rounded=0;orthogonalLoop=1;jettySize=auto;html=1;exitX=0.5;exitY=1;exitDx=0;exitDy=0;entryX=0.5;entryY=0;entryDx=0;entryDy=0;entryPerimeter=0;" edge="1" parent="1" source="qqhGFcqV8pq6I3TWqDAr-336" target="qqhGFcqV8pq6I3TWqDAr-316">
          <mxGeometry relative="1" as="geometry" />
        </mxCell>
      </root>
    </mxGraphModel>
  </diagram>
</mxfile>
